# xmcd
#
# Track frame offsets: 
#        150
#        34750
#        72710
#        109610
#        141881
#        175549
#        209595
#        245257
#        281838
#        319683
#
# Disc length: 4701 seconds
#
# Revision: 0
# Processed by: cddbd v1.5.2PL0 Copyright (c) Steve Scherf et al.
# Submitted via: ExactAudioCopy v0.95b2
#
DISCID=95125b0a
DTITLE=Transwave - Frontfire
DYEAR=2009
DGENRE=trance
TTITLE0=Urlifter
TTITLE1=Coming Soon
TTITLE2=Trashish
TTITLE3=Rising High
TTITLE4=Fuel On
TTITLE5=Rezwalker
TTITLE6=Cycles Of Life
TTITLE7=Land Of Freedom
TTITLE8=Organic
TTITLE9=Phototropic Part II
EXTD=
EXTT0=
EXTT1=
EXTT2=
EXTT3=
EXTT4=
EXTT5=
EXTT6=
EXTT7=
EXTT8=
EXTT9=
PLAYORDER=
